<svg preserveAspectRatio="none" width="100%" height="100%" overflow="visible" style="display: block;" viewBox="0 0 305.064 45.2159" fill="none" xmlns="http://www.w3.org/2000/svg">
<path id="Vector 261" d="M298.664 3.2C298.664 4.96731 300.097 6.4 301.864 6.4C303.631 6.4 305.064 4.96731 305.064 3.2C305.064 1.43269 303.631 0 301.864 0C300.097 0 298.664 1.43269 298.664 3.2ZM0 42.0159C0 43.7832 1.43269 45.2159 3.2 45.2159C4.96731 45.2159 6.4 43.7832 6.4 42.0159C6.4 40.2486 4.96731 38.8159 3.2 38.8159C1.43269 38.8159 0 40.2486 0 42.0159ZM301.864 3.2V2.6H23.2V3.2V3.8H301.864V3.2ZM3.2 23.2H2.6V42.0159H3.2H3.8V23.2H3.2ZM23.2 3.2V2.6C11.8229 2.6 2.6 11.8229 2.6 23.2H3.2H3.8C3.8 12.4857 12.4857 3.8 23.2 3.8V3.2Z" fill="var(--stroke-0, #666666)"/>
</svg>
