<svg width="195" height="46" viewBox="0 0 195 46" fill="none" xmlns="http://www.w3.org/2000/svg">
<path d="M-74.8 42.0159C-74.8 40.2486 -76.2327 38.8159 -78 38.8159C-79.7673 38.8159 -81.2 40.2486 -81.2 42.0159C-81.2 43.7832 -79.7673 45.2159 -78 45.2159C-76.2327 45.2159 -74.8 43.7832 -74.8 42.0159ZM194.552 3.19999C194.552 1.43268 193.119 -7.62939e-06 191.352 -7.62939e-06C189.584 -7.62939e-06 188.152 1.43268 188.152 3.19999C188.152 4.9673 189.584 6.39999 191.352 6.39999C193.119 6.39999 194.552 4.9673 194.552 3.19999ZM-78 42.0159V42.6159H171.352V42.0159V41.4159H-78V42.0159ZM191.352 22.0159H191.952V3.19999H191.352H190.752V22.0159H191.352ZM171.352 42.0159V42.6159C182.729 42.6159 191.952 33.393 191.952 22.0159H191.352H190.752C190.752 32.7303 182.066 41.4159 171.352 41.4159V42.0159Z" fill="#666666"/>
</svg>
