<svg preserveAspectRatio="none" width="100%" height="100%" overflow="visible" style="display: block;" viewBox="0 0 275.752 45.2159" fill="none" xmlns="http://www.w3.org/2000/svg">
<path id="Vector 262" d="M269.352 3.2C269.352 4.96731 270.784 6.4 272.552 6.4C274.319 6.4 275.752 4.96731 275.752 3.2C275.752 1.43269 274.319 0 272.552 0C270.784 0 269.352 1.43269 269.352 3.2ZM0 42.0159C0 43.7832 1.43269 45.2159 3.2 45.2159C4.96731 45.2159 6.4 43.7832 6.4 42.0159C6.4 40.2486 4.96731 38.8159 3.2 38.8159C1.43269 38.8159 0 40.2486 0 42.0159ZM272.552 3.2V2.6H23.2V3.2V3.8H272.552V3.2ZM3.2 23.2H2.6V42.0159H3.2H3.8V23.2H3.2ZM23.2 3.2V2.6C11.8229 2.6 2.6 11.8229 2.6 23.2H3.2H3.8C3.8 12.4857 12.4857 3.8 23.2 3.8V3.2Z" fill="var(--stroke-0, #666666)"/>
</svg>
