<svg preserveAspectRatio="none" width="100%" height="100%" overflow="visible" style="display: block;" viewBox="0 0 125 125" fill="none" xmlns="http://www.w3.org/2000/svg">
<g id="lightbulb-line">
<path id="Vector" d="M51.9431 93.75H57.2917V67.7083H67.7083V93.75H73.0568C73.7443 87.4917 76.938 82.3255 82.1229 76.6802C82.7068 76.0448 86.4521 72.1688 86.8963 71.6151C91.3114 66.1099 93.75 59.2969 93.75 52.0833C93.75 34.8244 79.7588 20.8333 62.5 20.8333C45.2411 20.8333 31.25 34.8244 31.25 52.0833C31.25 59.2932 33.6861 66.1026 38.097 71.6062C38.5419 72.1615 42.2959 76.0479 42.8726 76.676C48.0607 82.325 51.2554 87.4917 51.9431 93.75ZM52.0833 104.167V109.375H72.9167V104.167H52.0833ZM29.9685 78.1208C24.2523 70.988 20.8333 61.9349 20.8333 52.0833C20.8333 29.0715 39.4881 10.4167 62.5 10.4167C85.512 10.4167 104.167 29.0715 104.167 52.0833C104.167 61.9401 100.744 70.9974 95.0224 78.1323C91.7917 82.1604 83.3333 88.5417 83.3333 96.3542V109.375C83.3333 115.128 78.6698 119.792 72.9167 119.792H52.0833C46.3304 119.792 41.6667 115.128 41.6667 109.375V96.3542C41.6667 88.5417 33.2009 82.1542 29.9685 78.1208Z" fill="url(#paint0_linear_0_8)"/>
</g>
<defs>
<linearGradient id="paint0_linear_0_8" x1="62.5" y1="10.4167" x2="62.5" y2="119.792" gradientUnits="userSpaceOnUse">
<stop stop-color="#C6E41D"/>
<stop offset="1" stop-color="#FFEB0A"/>
</linearGradient>
</defs>
</svg>
